# xmcd
#
# Track frame offsets: 
#        150
#        18475
#        33747
#        67835
#        108312
#        149977
#        175410
#        199360
#        217635
#        240535
#        260300
#        291247
#        320575
#
# Disc length: 4428 seconds
#
# Revision: 4
# Processed by: cddbd v1.5.2PL0 Copyright (c) Steve Scherf et al.
# Submitted via: ExactAudioCopy v1.0b4
#
DISCID=c7114a0d
DTITLE=Kim Wilson - Smokin' Joint
DYEAR=2001
DGENRE=Blues
TTITLE0=Ain't Gonna Do It
TTITLE1=Good Time Charlie
TTITLE2=Oh Baby
TTITLE3=Early In the Morning
TTITLE4=Got To Let You Go
TTITLE5=Learn To Treat Me Right
TTITLE6=Smokin' Joint
TTITLE7=I Stay In the Mood
TTITLE8=Telephone Blues
TTITLE9=High and Lonesome
TTITLE10=I Can Tell
TTITLE11=Tomorrow Night
TTITLE12=The Lighthouse Is Gone
EXTD=
EXTT0=
EXTT1=
EXTT2=
EXTT3=
EXTT4=
EXTT5=
EXTT6=
EXTT7=
EXTT8=
EXTT9=
EXTT10=
EXTT11=
EXTT12=
PLAYORDER=
